<svg id="Layer_1" data-name="Layer 1" xmlns="http://www.w3.org/2000/svg" viewBox="0 0 94.8 67.92"><defs><style>.cls-1{fill:#8fa194;}</style></defs><path class="cls-1" d="M59,37.24c-4.84,0-9.68,0-14.52,0a1.39,1.39,0,0,0-1.45.89C41.13,41.87,38.1,44,33.81,44s-7.31-2.1-9.21-5.87a1.49,1.49,0,0,0-1.46-.88c-2-.19-3.41.18-4.58,2.29A9.52,9.52,0,0,1,8.07,43.77a10.2,10.2,0,0,1-1-19.69,10.07,10.07,0,0,1,12.19,5.09,2,2,0,0,0,2,1.23c1.83.09,3-.23,4.06-2.1,2-3.57,5.47-5,9.55-4.64A9.66,9.66,0,0,1,43,29.33a1.59,1.59,0,0,0,1.67,1c9.65,0,19.29,0,28.94,0a1.92,1.92,0,0,0,1.94-1.73c0-.38-.22-.49-.46-.61-2.23-1.12-4.46-2.21-6.68-3.35-.63-.32-1,.07-1.39.38A10.18,10.18,0,0,1,52.38,22.8a8.92,8.92,0,0,1-1.77-5.4c0-.84-.31-1.17-1.1-1.35q-2.71-.6-5.4-1.35c-.76-.22-1.1,0-1.49.65A10.13,10.13,0,0,1,27.11,17.9a9.34,9.34,0,0,1-2.55-3.45,1.09,1.09,0,0,0-1.28-.79h-.21a3.87,3.87,0,0,0-4.49,2.24A9.58,9.58,0,0,1,7.9,20.16,10.2,10.2,0,0,1,7.16.48,10.1,10.1,0,0,1,19.33,5.66a1.84,1.84,0,0,0,1.82,1.16,3.92,3.92,0,0,0,4.3-2.24C27.52,1,31-.38,35.08.1a9.71,9.71,0,0,1,8.16,6.3,1.89,1.89,0,0,0,1.47,1.26c2.46.57,4.91,1.18,7.34,1.85A2.39,2.39,0,0,0,54.44,9,10,10,0,0,1,67.16,9a9.45,9.45,0,0,1,3.75,7.77,1.88,1.88,0,0,0,1.25,2c3.1,1.48,6.16,3,9.23,4.6a2.78,2.78,0,0,0,1.61.3c5.73-.48,10.2,2.76,11.37,8.21a10.08,10.08,0,0,1-9.72,12.05,10.21,10.21,0,0,0-5.18,1.25c-2.49,1.36-5,2.59-7.61,3.82a1.48,1.48,0,0,0-.94,1.55,9.94,9.94,0,0,1-8.23,10.1,9.6,9.6,0,0,1-8.37-2.12,2.07,2.07,0,0,0-2.1-.47c-2.56.7-5.16,1.31-7.74,1.94a1.51,1.51,0,0,0-1.17,1c-1.59,3.82-4.43,6.14-8.58,6.48-4.6.37-8-1.68-10.09-5.77a1.6,1.6,0,0,0-1.52-1,4.06,4.06,0,0,0-4.58,2.32,9.57,9.57,0,0,1-10.6,4.22,10.21,10.21,0,0,1-.82-19.68A10.09,10.09,0,0,1,19.3,52.77,1.92,1.92,0,0,0,21.21,54a3.93,3.93,0,0,0,4.21-2.19,10,10,0,0,1,17.1.31,1.37,1.37,0,0,0,1.83.75c1.78-.51,3.59-1,5.4-1.37.64-.15.83-.47.85-1.1a9.63,9.63,0,0,1,5.79-8.94A9.77,9.77,0,0,1,67,42.57a1.44,1.44,0,0,0,1.79.16c2-1,3.94-2,5.91-3,.33-.17,1-.24.76-.79s-.25-1.62-1.29-1.71c-.28,0-.56,0-.84,0ZM10.27,13.47a3.38,3.38,0,0,0,3.22-3.26A3.37,3.37,0,0,0,10.26,7,3.37,3.37,0,0,0,7,10.28,3.37,3.37,0,0,0,10.27,13.47Zm23.49,0a3.37,3.37,0,0,0,3.3-3.17,3.25,3.25,0,1,0-6.49-.11A3.37,3.37,0,0,0,33.76,13.47ZM64,17a3.25,3.25,0,0,0-6.5-.11A3.25,3.25,0,1,0,64,17ZM13.49,33.82a3.37,3.37,0,0,0-3.19-3.27A3.25,3.25,0,1,0,10.24,37,3.37,3.37,0,0,0,13.49,33.82Zm23.57-.07A3.25,3.25,0,1,0,33.89,37,3.36,3.36,0,0,0,37.06,33.75Zm50.53,0A3.25,3.25,0,1,0,84.39,37,3.37,3.37,0,0,0,87.59,33.77ZM64,50.63a3.25,3.25,0,1,0-3.22,3.25A3.35,3.35,0,0,0,64,50.63Zm-53.77,10a3.25,3.25,0,0,0,0-6.5,3.25,3.25,0,1,0,0,6.5Zm23.53,0a3.25,3.25,0,1,0-3.2-3.27A3.37,3.37,0,0,0,33.77,60.62Z"/></svg>