<?xml version="1.0" encoding="utf-8"?>
<!-- Generator: Adobe Illustrator 24.1.2, SVG Export Plug-In . SVG Version: 6.00 Build 0)  -->
<svg version="1.1" id="Layer_1" xmlns="http://www.w3.org/2000/svg" xmlns:xlink="http://www.w3.org/1999/xlink" x="0px" y="0px"
	 viewBox="0 0 85.58 85.57" style="enable-background:new 0 0 85.58 85.57;" xml:space="preserve">
<style type="text/css">
	.st0{fill:#48634E;}
</style>
<g>
	<path class="st0" d="M38.8,84.26c-0.54-0.4-0.75-0.93-0.7-1.61c0.04-0.69,0.01-1.39,0.01-2.09c0-1.72,0-1.73-1.69-1.72
		c-1.15,0.01-2.24-0.19-3.25-0.74c-2.38-1.29-3.71-3.26-3.74-6.01c-0.02-1.69-0.01-3.38,0-5.06c0-0.37-0.02-0.67-0.43-0.85
		c-1.94-0.88-2.71-2.48-2.72-4.52c0-0.67-0.04-1.34,0.01-2.01c0.05-0.67-0.23-1.07-0.79-1.43c-6.05-3.85-9.9-9.29-11.55-16.27
		c-1.05-4.41-0.88-8.81,0.38-13.16c0.16-0.56,0.36-1.08,0.99-1.26c0.51-0.14,0.96,0.01,1.33,0.37c0.42,0.4,0.41,0.9,0.26,1.42
		c-0.64,2.11-1.04,4.28-1.01,6.48c0.15,9,4,15.94,11.74,20.63c0.91,0.55,1.37,1.16,1.28,2.24c-0.08,0.98-0.03,1.98-0.01,2.97
		c0.02,1.57,0.65,2.2,2.19,2.21c2.04,0.01,4.07-0.02,6.11,0.02c0.7,0.01,0.93-0.22,0.92-0.93c-0.02-16.5-0.02-33,0-49.5
		c0-0.61-0.15-0.76-0.77-0.7c-7.18,0.67-12.81,4.02-17.08,9.77c-0.18,0.24-0.33,0.49-0.5,0.73c-0.56,0.75-1.19,0.9-1.86,0.45
		c-0.68-0.45-0.79-1.17-0.28-1.96c0.89-1.38,1.92-2.65,3.06-3.82c4.37-4.44,9.66-7.01,15.83-7.78c1.6-0.2,1.6-0.19,1.6-1.81
		c0-1.13-0.01-2.25,0-3.38c0.01-0.85,0.47-1.36,1.22-1.41c0.73-0.05,1.28,0.44,1.39,1.26c0.04,0.32,0.03,0.64,0.03,0.96
		c0,5.36,0,10.72,0,16.07c0,0.29,0,0.58,0,0.87c0.05,0.01,0.1,0.03,0.14,0.04c0.28-0.62,0.56-1.23,0.84-1.85
		c1.15-2.62,2.3-5.25,3.45-7.87c0.51-1.16,1.14-1.4,2.3-0.9c1.47,0.64,2.94,1.29,4.42,1.92c0.26,0.11,0.59,0.44,0.84,0.02
		c0.23-0.38,0.47-0.8,0.1-1.26c-0.54-0.67-1.07-1.34-1.58-2.03c-0.64-0.85-0.63-1.34,0.08-2.14c0.81-0.92,1.65-1.83,2.5-2.72
		c0.69-0.72,1.13-0.77,1.99-0.25c0.71,0.43,1.41,0.88,2.12,1.3c0.78,0.46,2.06-0.15,2.2-1.04c0.12-0.77,0.21-1.54,0.31-2.3
		c0.13-1.07,0.61-1.51,1.67-1.55c1.2-0.05,2.4-0.13,3.61-0.16c1.04-0.02,1.37,0.25,1.64,1.27c0.2,0.78,0.36,1.56,0.56,2.34
		c0.23,0.88,1.59,1.36,2.32,0.82c0.65-0.48,1.27-0.99,1.91-1.46c0.85-0.63,1.42-0.61,2.22,0.1c0.9,0.8,1.8,1.61,2.68,2.43
		c0.63,0.58,0.73,1.19,0.29,1.94c-0.43,0.74-0.92,1.45-1.36,2.18c-0.42,0.69,0.14,1.99,0.94,2.14c0.76,0.14,1.53,0.22,2.3,0.3
		c1.25,0.14,1.68,0.6,1.72,1.87c0.04,1.15,0.13,2.3,0.15,3.45c0.02,0.92-0.3,1.31-1.19,1.54c-0.83,0.22-1.67,0.39-2.5,0.6
		c-0.88,0.23-1.34,1.58-0.79,2.31c0.5,0.66,1.03,1.3,1.53,1.97c0.54,0.73,0.53,1.3-0.05,1.96c-0.87,0.98-1.76,1.95-2.66,2.9
		c-0.52,0.55-1.14,0.66-1.81,0.24c-0.77-0.48-1.55-0.96-2.33-1.43c-0.37-0.22-1.83,0.2-2.01,0.57c-0.04,0.09-0.03,0.21-0.01,0.31
		c0.03,0.13,0.06,0.27,0.13,0.38c1.21,1.9,0.87,3.73-0.21,5.56c-0.36,0.62-0.57,1.33-0.88,1.98c-0.25,0.53-0.14,0.71,0.46,0.7
		c2.14-0.02,4.29-0.01,6.43-0.01c2.12,0,4.23-0.01,6.35,0c1.13,0,1.63,0.49,1.63,1.61c0.01,6.67,0,13.34,0.01,20.01
		c0,0.57-0.17,1.04-0.56,1.45c-1.55,1.63-3.09,3.27-4.62,4.92c-0.47,0.51-1,0.73-1.7,0.72c-2.95-0.03-5.89-0.01-9.06-0.01
		c0.51,0.11,0.82,0.17,1.12,0.24c0.85,0.19,1.25,0.63,1.29,1.5c0.04,1.02,0.04,2.04,0.01,3.05c-0.02,0.82-0.42,1.36-1.28,1.49
		c-0.58,0.09-1.16,0.2-1.74,0.32c-0.87,0.17-1.21,0.94-0.73,1.69c0.35,0.54,0.74,1.05,1.09,1.59c0.43,0.65,0.36,1.27-0.18,1.83
		c-0.73,0.75-1.47,1.49-2.21,2.22c-0.57,0.56-1.21,0.64-1.89,0.17c-0.51-0.35-1.01-0.71-1.52-1.05c-0.73-0.49-1.49-0.2-1.68,0.66
		c-0.12,0.52-0.2,1.05-0.29,1.58c-0.09,0.58-0.3,1.08-0.84,1.39c-1.5,0-3,0-4.5,0c-0.52-0.32-0.72-0.84-0.82-1.41
		c-0.09-0.5-0.16-1-0.27-1.5c-0.21-0.95-0.98-1.25-1.79-0.71c-0.49,0.33-0.96,0.69-1.46,1c-0.64,0.4-1.29,0.39-1.84-0.14
		c-0.78-0.74-1.53-1.5-2.28-2.27c-0.53-0.55-0.59-1.19-0.17-1.83c0.32-0.49,0.67-0.97,1-1.46c0.56-0.83,0.24-1.61-0.74-1.82
		c-0.58-0.12-1.16-0.2-1.73-0.32c-0.78-0.17-1.21-0.64-1.2-1.47c0.01-1.07,0-2.14,0-3.21c0-0.71,0.36-1.17,1.05-1.32
		c0.6-0.13,1.21-0.22,1.81-0.33c1.02-0.19,1.35-0.97,0.78-1.81c-0.33-0.49-0.67-0.97-1.01-1.45c-0.44-0.64-0.41-1.27,0.12-1.83
		c0.76-0.79,1.54-1.57,2.33-2.33c0.53-0.51,1.14-0.56,1.76-0.14c0.55,0.38,1.1,0.77,1.65,1.14c0.48,0.32,1.23,0.14,1.52-0.35
		c0.37-0.63,0.2-1.27-0.43-1.54c-3.48-1.53-6.96-3.06-10.44-4.58c-0.99-0.43-1-0.42-1,0.66c0,5.03,0,10.07,0,15.1
		c0,4.02,0,8.03,0,12.05c0,0.75-0.08,1.45-0.83,1.87C39.55,84.26,39.18,84.26,38.8,84.26z M40.75,40.3c0,3.37,0.01,6.75-0.01,10.12
		c0,0.58,0.14,0.92,0.72,1.16c4.1,1.77,8.19,3.58,12.29,5.37c0.85,0.37,0.92,0.33,0.92-0.58c0-3.37,0-6.75,0-10.12
		c0-0.63,0.08-1.23,0.54-1.71c1.62-1.71,3.23-3.43,4.84-5.15c0.35-0.38,0.78-0.53,1.29-0.52c1.02,0.02,2.04-0.02,3.05,0.01
		c0.56,0.02,0.88-0.17,1.09-0.7c0.45-1.14,0.94-2.28,1.49-3.38c0.32-0.65,0.17-0.94-0.47-1.21c-2.04-0.87-4.07-1.78-6.1-2.68
		c-1.28-0.56-1.52-1.19-0.94-2.48c0.91-2.06,1.81-4.11,2.74-6.16c0.21-0.47,0.2-0.75-0.35-0.99c-4.66-2.02-9.32-4.07-13.97-6.12
		c-0.45-0.2-0.7-0.18-0.92,0.33c-1.95,4.49-3.92,8.98-5.89,13.46c-0.22,0.5-0.32,1.01-0.31,1.55C40.75,33.76,40.75,37.03,40.75,40.3
		z M80.55,43.52c-0.73,0.76-1.28,1.39-1.88,1.95c-0.44,0.42-0.62,0.87-0.61,1.49c0.03,1.87,0.03,3.75,0,5.62
		c-0.02,1.16-1.04,1.78-1.99,1.22c-0.52-0.31-0.65-0.83-0.65-1.38c-0.01-1.47-0.04-2.95,0.01-4.42c0.03-0.8-0.22-1.08-1.04-1.07
		c-3.16,0.04-6.32,0.02-9.48,0.02c-2.25,0-4.5,0-6.75,0c-0.48,0-0.84,0.05-0.83,0.68c0.01,3,0.01,6,0,9c0,0.34,0.1,0.58,0.46,0.64
		c0.91,0.17,1.28,0.78,1.38,1.64c0.06,0.45,0.16,0.89,0.25,1.34c0.19,0.95,0.98,1.29,1.76,0.77c0.51-0.35,1.01-0.7,1.53-1.04
		c0.65-0.43,1.26-0.37,1.81,0.18c0.68,0.68,1.37,1.36,2.05,2.04c0.83,0.84,0.89,1.17,0.28,2.18c-0.31,0.51-0.12,0.57,0.35,0.57
		c2.49-0.01,4.98-0.02,7.47,0c0.55,0,0.76-0.2,0.75-0.75c-0.02-1.5-0.01-3,0-4.5c0-0.27,0-0.54,0.05-0.8
		c0.15-0.72,0.65-1.09,1.39-1.04c0.73,0.04,1.16,0.47,1.19,1.24c0.03,0.61,0,1.23,0.02,1.85c0.02,0.62-0.08,1.24,0.09,1.94
		c0.6-0.64,1.1-1.23,1.67-1.76c0.53-0.49,0.73-1.03,0.73-1.76c-0.03-4.96-0.02-9.91-0.02-14.87C80.55,44.23,80.55,43.97,80.55,43.52
		z M71.81,18.22c0,2.48-1.24,4.68-3.39,6.02c-1.19,0.75-1.19,0.75-0.68,2.06c0.01,0.02,0.02,0.05,0.03,0.08
		c0.46,1.16,0.52,1.25,1.54,0.55c1.18-0.81,2.21-0.76,3.27,0.13c0.14,0.12,0.31,0.2,0.47,0.3c1.16,0.72,1.14,0.7,2.08-0.3
		c0.33-0.36,0.32-0.61,0.03-0.95c-0.45-0.53-0.85-1.11-1.29-1.64c-0.5-0.6-0.6-1.22-0.23-1.93c0.36-0.69,0.61-1.43,0.78-2.19
		c0.15-0.68,0.56-1.07,1.23-1.22c0.73-0.17,1.45-0.38,2.19-0.5c0.72-0.12,0.64-0.63,0.59-1.1c-0.05-0.47,0.05-1.05-0.74-1.09
		c-0.72-0.04-1.43-0.22-2.14-0.28c-0.7-0.06-1.14-0.4-1.37-1.05c-0.28-0.79-0.62-1.54-1.07-2.24c-0.37-0.58-0.35-1.15,0.03-1.73
		c0.41-0.63,0.79-1.27,1.19-1.91C74.47,9,74.58,8.8,74.37,8.52c-0.78-1.05-1.16-1.11-2.17-0.35c-2.13,1.59-1.75,1.62-4.27,0.76
		c-1.66-0.57-2.47-1.37-2.62-3.01c0-0.03-0.01-0.05-0.02-0.08c-0.31-1.34-0.43-1.41-1.77-1.25c-0.35,0.04-0.53,0.18-0.57,0.54
		c-0.09,0.77-0.22,1.53-0.31,2.3c-0.08,0.68-0.4,1.14-1.06,1.37c-0.79,0.26-1.54,0.62-2.24,1.06c-0.62,0.39-1.2,0.35-1.8-0.05
		c-0.63-0.41-1.27-0.8-1.91-1.18C54.85,8.18,54.69,9,54.29,9.29c-0.35,0.26-0.41,0.59-0.11,0.97c0.46,0.56,0.88,1.14,1.34,1.71
		c0.46,0.58,0.56,1.15,0.22,1.85c-0.76,1.59-0.74,1.6,0.87,2.3c1.03,0.45,1.03,0.45,1.48-0.63c1.33-3.16,4.66-4.91,8.06-4.24
		C69.44,11.9,71.81,14.83,71.81,18.22z M67.03,70.89c0.05-0.44-0.1-0.72-0.6-0.75c-0.24-0.01-0.47-0.12-0.71-0.13
		c-1.21-0.07-1.75-0.73-2.31-1.82c-0.83-1.64-0.72-2.91,0.5-4.18c0.32-0.34,0.17-0.6-0.11-0.89c-0.29-0.3-0.55-0.38-0.9-0.1
		c-0.25,0.2-0.55,0.34-0.79,0.55c-0.83,0.75-1.61,0.58-2.64,0.25c-1.78-0.57-2.7-1.56-2.72-3.41c0-0.42-0.28-0.5-0.65-0.53
		c-0.92-0.05-0.78,0.71-0.82,1.18c-0.12,1.25-0.67,1.88-1.87,2.45c-1.62,0.77-2.86,0.72-4.11-0.5c-0.34-0.34-0.64-0.21-0.96,0.1
		c-0.33,0.32-0.26,0.58-0.02,0.9c0.3,0.41,0.59,0.83,0.86,1.26c0.62,0.99-0.55,4.13-1.66,4.49c-0.1,0.03-0.21,0.05-0.31,0.07
		c-0.34,0.06-0.69,0.11-1.03,0.18c-0.44,0.08-0.92,0.08-0.93,0.75c0,0.64,0.38,0.74,0.88,0.78c1.36,0.11,2.15,0.68,2.77,2.06
		c0.73,1.62,0.56,2.77-0.55,3.97c-0.29,0.31-0.27,0.56,0.03,0.89c0.38,0.41,0.7,0.42,1.08,0.06c1.17-1.1,2.3-1.13,3.84-0.49
		c1.48,0.62,2.01,1.49,2.11,2.9c0.03,0.44,0.21,0.75,0.75,0.75c0.48,0,0.73-0.25,0.73-0.67c0-1.73,0.92-2.53,2.5-3.11
		c1.19-0.44,2.07-0.5,2.99,0.34c0.14,0.12,0.31,0.21,0.46,0.32c0.32,0.23,0.6,0.42,0.97,0.04c0.36-0.36,0.36-0.66,0.07-1.05
		c-0.28-0.36-0.51-0.76-0.78-1.12c-0.41-0.55-0.48-1.1-0.13-1.72c0.32-0.56,0.55-1.16,0.73-1.78c0.18-0.66,0.62-1.03,1.32-1.12
		c0.5-0.07,1-0.21,1.5-0.28C66.92,71.49,67.08,71.29,67.03,70.89z M38.1,71.42c0-1.36-0.02-2.73,0.01-4.09
		c0.01-0.55-0.19-0.77-0.75-0.77c-1.52,0.02-3.05,0.02-4.57,0c-0.55,0-0.76,0.25-0.75,0.78c0.02,1.68,0.02,3.37,0.03,5.05
		c0.01,0.78,0.3,1.45,0.75,2.08c1.14,1.6,2.79,1.81,4.57,1.73c0.57-0.02,0.74-0.24,0.73-0.77C38.09,74.09,38.1,72.75,38.1,71.42z
		 M69.16,17.54c0-1.59-1.63-3.46-3.86-3.78c-2.17-0.31-4.31,1.11-4.94,3.23c-0.16,0.53-0.02,0.79,0.47,0.98
		c0.77,0.31,1.5,0.71,2.28,0.98c1.45,0.49,2.57,1.25,2.91,2.87c0.12,0.58,0.49,0.52,0.9,0.26C68.35,21.18,69.18,19.93,69.16,17.54z
		 M78.69,41.62c-0.2-0.05-0.27-0.09-0.35-0.09c-5.41,0-10.81,0-16.22,0c-0.21,0-0.44,0-0.6,0.17c-0.76,0.78-1.51,1.56-2.31,2.39
		c0.17,0.06,0.24,0.11,0.31,0.11c5.43,0,10.87,0.01,16.3,0.01c0.28,0,0.53-0.05,0.73-0.27C77.23,43.18,77.92,42.44,78.69,41.62z
		 M64.15,24.32c-0.66,1.49-1.23,2.78-1.81,4.07c-0.17,0.38,0.04,0.53,0.34,0.66c0.71,0.31,1.41,0.64,2.13,0.92
		c0.54,0.22,1.04,0.59,1.77,0.61C65.77,28.51,65.01,26.53,64.15,24.32z"/>
	<path class="st0" d="M19.67,57.73c-0.03,0.4-0.2,0.74-0.47,1.01c-1.3,1.31-2.59,2.62-3.92,3.91c-0.7,0.68-1.41,0.67-1.98,0.09
		c-0.58-0.6-0.54-1.26,0.16-1.97c1.29-1.31,2.6-2.61,3.92-3.91c0.41-0.4,0.89-0.59,1.46-0.3C19.33,56.8,19.6,57.2,19.67,57.73z"/>
	<path class="st0" d="M19.24,14.55c-0.03,0.69-0.27,1.1-0.74,1.33c-0.53,0.25-1.06,0.14-1.48-0.26c-0.81-0.78-1.6-1.58-2.39-2.37
		c-0.57-0.57-1.15-1.12-1.69-1.71c-0.53-0.59-0.51-1.28-0.02-1.8c0.51-0.54,1.28-0.6,1.86-0.03c1.39,1.34,2.74,2.71,4.09,4.08
		C19.12,14.02,19.26,14.34,19.24,14.55z"/>
	<path class="st0" d="M6.34,37.63c-0.96,0-1.93,0.06-2.88-0.02c-1.08-0.08-1.63-1.07-1.16-1.94c0.25-0.47,0.66-0.66,1.19-0.66
		c1.9,0.01,3.79-0.01,5.69,0.01c0.79,0.01,1.29,0.47,1.36,1.18c0.06,0.7-0.38,1.31-1.15,1.38c-1.01,0.08-2.03,0.02-3.04,0.02
		C6.34,37.61,6.34,37.62,6.34,37.63z"/>
	<path class="st0" d="M61.69,70.9c-0.01,3.1-2.48,5.55-5.58,5.52c-3.05-0.02-5.62-2.61-5.61-5.67c0.01-3.1,2.51-5.53,5.68-5.52
		C59.3,65.25,61.7,67.71,61.69,70.9z M56.15,67.88c-1.69-0.02-2.98,1.22-2.99,2.87c-0.01,1.65,1.33,3.01,2.98,3.02
		c1.65,0.01,2.96-1.29,2.95-2.93C59.09,69.18,57.81,67.9,56.15,67.88z"/>
</g>
</svg>
