<?xml version="1.0" encoding="utf-8"?>
<!-- Generator: Adobe Illustrator 24.1.2, SVG Export Plug-In . SVG Version: 6.00 Build 0)  -->
<svg version="1.1" id="Layer_1" xmlns="http://www.w3.org/2000/svg" xmlns:xlink="http://www.w3.org/1999/xlink" x="0px" y="0px"
	 viewBox="0 0 137.13 137.1" style="enable-background:new 0 0 137.13 137.1;" xml:space="preserve">
<style type="text/css">
	.st0{fill:#191919;}
</style>
<g>
	<path class="st0" d="M68.51,137.1c-21.71,0-43.42,0-65.12,0c-2.83,0-3.35-0.53-3.35-3.4c0-3.4-0.08-6.81,0.02-10.21
		c0.34-11.59,5.72-20.1,15.95-25.5c1.29-0.68,1.81-1.38,1.73-2.83c-0.12-2.34-0.04-4.69-0.03-7.04c0.03-5.9,4.92-10.81,10.81-10.83
		c5.7-0.02,11.41,0,17.11-0.01c1.56,0,1.57-0.01,0.89-1.34c-1.49-2.91-2.79-5.9-3.71-9.04c-0.26-0.88-0.73-1.54-1.45-2.11
		c-2.35-1.84-4.66-3.75-7.02-5.58c-2.78-2.16-3.9-5.02-3.26-8.4c0.63-3.29,2.72-5.47,5.99-6.37c0.9-0.25,1.08-0.58,0.64-1.44
		c-1.6-3.11-3.12-6.25-4.71-9.37c-1.48-2.89-1.76-5.82-0.69-8.92c1.18-3.42-0.26-6.24-3.66-7.45c-1.3-0.46-2.61-0.89-3.92-1.31
		c-1.21-0.39-2.4-0.76-2.59-2.3c-0.2-1.6,0.92-2.27,2.05-2.94c7.04-4.22,14.55-7.25,22.56-9.01C51.69,0.62,56.68-0.03,61.76,0
		c6.81,0.04,13.61,0,20.42,0.01c10.66,0.02,20.21,8.11,22.09,18.64c0.78,4.36,0.35,8.59-1.17,12.73c-1.4,3.8-2.74,7.61-4.16,11.4
		c-0.34,0.9-0.38,1.31,0.76,1.56c3.42,0.75,5.65,2.93,6.36,6.33c0.71,3.42-0.4,6.34-3.22,8.54c-2.36,1.84-4.66,3.74-7.01,5.59
		c-0.72,0.56-1.2,1.22-1.46,2.1c-0.94,3.23-2.26,6.32-3.83,9.29c-0.54,1.02-0.21,1.12,0.72,1.11c5.75-0.02,11.5-0.02,17.25-0.01
		c6.08,0.02,10.92,4.88,10.95,10.97c0.01,2.48,0.05,4.97-0.02,7.45c-0.03,1.01,0.32,1.56,1.24,2.01
		c8.72,4.27,13.99,11.23,16.01,20.69c0.51,2.41,0.44,4.84,0.44,7.28c0,2.71,0,5.43,0,8.14c0,2.68-0.58,3.26-3.21,3.26
		c-16.33,0-32.65,0-48.98,0C79.45,137.1,73.98,137.1,68.51,137.1z M68.5,132.49c14.81,0,29.62,0,44.43,0c1.93,0,1.93,0,1.93-1.98
		c0-4.78,0-9.57,0-14.35c0-8.92,0.01-17.84-0.01-26.77c0-2.96-0.93-5.44-3.79-6.8c-1.22-0.58-2.56-0.7-3.9-0.7
		c-8.19,0-16.37,0-24.56,0c-17.52,0-35.04,0-52.57,0c-2.27,0-4.39,0.42-6.01,2.22c-1.42,1.58-1.72,3.51-1.72,5.53
		c0,13.66,0,27.32,0,40.98c0,1.87,0,1.87,1.9,1.87C38.97,132.49,53.73,132.49,68.5,132.49z M97.29,33.45
		c0.61-1.73,1.28-3.44,1.82-5.2c0.9-2.94,1.11-5.94,0.43-8.97c-1.97-8.7-8.62-14.35-17.99-14.58c-8.67-0.22-17.37-0.41-26.03,0.43
		c-8.42,0.82-16.37,3.23-23.94,6.95c-0.35,0.17-0.8,0.23-0.97,0.69c0.06,0.07,0.11,0.18,0.18,0.2c5.35,1.94,8.19,8.11,5.94,13.59
		c-0.63,1.54-0.4,3.07,0.33,4.53c0.95,1.89,1.95,3.75,2.81,5.68c0.49,1.1,0.9,1.16,1.88,0.5c4.75-3.23,9.52-6.43,14.34-9.56
		c3.38-2.19,7.13-3.34,11.19-3.41c4.74-0.08,9.04-1.4,12.7-4.55c1.36-1.17,2.78-2.26,4.19-3.37c1.86-1.47,3.12-1.27,4.49,0.7
		c0.71,1.02,1.37,2.07,2.07,3.09C93.53,24.28,96.35,28.38,97.29,33.45z M68.55,77.29c4.87,0,9.75-0.01,14.62,0.01
		c0.77,0,1.39-0.06,1.84-0.86c4.38-7.77,6.99-16.07,7.48-24.99c0.16-2.94,0.47-2.63-2.72-2.68c-0.99-0.02-1.27,0.39-1.25,1.31
		c0.05,1.84,0.03,3.68,0.01,5.52c-0.04,3.52-2.9,6.38-6.41,6.43c-1.7,0.02-3.4-0.01-5.1,0.01c-1.19,0.01-2.27-0.35-3.24-1
		c-2.27-1.51-3.29-3.64-3.08-6.35c0.08-0.98-0.13-1.52-1.33-1.51c-2.77,0.02-2.77-0.04-2.91,2.83c-0.15,3.12-2.98,5.93-6.12,6.01
		c-1.79,0.05-3.59,0.04-5.38,0.01c-3.43-0.06-6.28-2.93-6.33-6.37c-0.03-1.84,0-3.68-0.01-5.52c0-0.4,0.16-0.98-0.26-1.15
		c-1.04-0.42-2.19-0.33-3.24-0.1c-0.83,0.18-0.5,1.09-0.47,1.67c0.35,9.23,2.98,17.8,7.48,25.83c0.44,0.78,1.02,0.92,1.81,0.92
		C58.8,77.28,63.67,77.29,68.55,77.29z M82.27,44.17c3.08,0,6.16-0.01,9.24,0c0.71,0,1.26-0.06,1.27-1
		c0.01-2.99,0.06-5.97-0.41-8.93c-0.6-3.78-2.54-6.94-4.67-10.03c-2.02-2.94-2-2.98-4.74-0.76c-4.24,3.43-9,5.4-14.53,5.48
		c-3,0.05-5.98,0.54-8.61,2.11c-5.09,3.04-9.91,6.5-14.85,9.77c-1.07,0.71-0.61,1.87-0.5,2.8c0.1,0.89,1.04,0.54,1.62,0.54
		c5.74,0.03,11.49,0.01,17.23,0.02c2.49,0,3.14,0.58,3.12,3.05c-0.01,1.14,0.43,1.48,1.47,1.37c0.36-0.04,0.74-0.05,1.1,0
		c1.32,0.19,1.77-0.34,1.72-1.68c-0.08-2,0.72-2.73,2.73-2.74C76.39,44.16,79.33,44.17,82.27,44.17z M17.63,102.4
		c-6.35,3.6-10.39,8.66-12.15,15.46c-1.17,4.5-0.79,9.13-0.83,13.72c-0.01,1,0.69,0.91,1.34,0.91c3.36,0,6.71-0.06,10.07,0.03
		c1.38,0.04,1.68-0.46,1.67-1.74c-0.05-8.96-0.02-17.93-0.03-26.89C17.7,103.49,17.66,103.08,17.63,102.4z M119.69,102.51
		c-0.14,0.22-0.18,0.25-0.18,0.29c-0.02,9.56-0.03,19.12-0.06,28.68c0,0.8,0.38,1.02,1.11,1.02c3.59-0.02,7.17-0.03,10.76,0.01
		c0.89,0.01,1.22-0.31,1.21-1.21c-0.04-2.44,0.07-4.88-0.04-7.31c-0.13-2.75-0.43-5.49-1.38-8.12
		C128.97,110.01,125.2,105.58,119.69,102.51z M61.85,52.44C61.85,52.44,61.85,52.44,61.85,52.44c0.01-0.87-0.02-1.74,0.01-2.61
		c0.03-0.77-0.31-1.07-1.07-1.06c-2.16,0.02-4.31,0.02-6.47,0c-0.72-0.01-1.13,0.2-1.12,1.01c0.03,1.74-0.04,3.49,0.03,5.23
		c0.06,1.48,0.87,2.29,2.34,2.38c1.28,0.08,2.57,0.08,3.85,0.01c1.53-0.08,2.31-0.92,2.4-2.47C61.89,54.1,61.85,53.27,61.85,52.44z
		 M79.63,48.78c-1.06,0-2.11,0.03-3.17-0.01c-0.79-0.03-1.19,0.23-1.17,1.1c0.04,1.7-0.03,3.4,0.03,5.09
		c0.06,1.54,0.89,2.36,2.43,2.44c1.24,0.07,2.48,0.06,3.71,0c1.59-0.08,2.4-0.92,2.45-2.56c0.05-1.65-0.01-3.3,0.03-4.95
		c0.02-0.85-0.35-1.14-1.16-1.11C81.74,48.81,80.68,48.78,79.63,48.78z M40.52,58.05c-0.3-3.02-0.77-5.73-0.75-8.48
		c0-0.6-0.29-0.79-0.89-0.69c-1.37,0.22-2.4,0.89-2.96,2.19c-0.54,1.25-0.4,2.47,0.45,3.5C37.49,55.89,38.97,56.81,40.52,58.05z
		 M96.63,58.12c1.53-1.3,2.89-2.3,4.06-3.49c0.99-1,1.04-2.33,0.51-3.6c-0.54-1.3-1.6-1.95-2.97-2.16c-0.5-0.07-0.85,0.03-0.84,0.59
		C97.4,52.25,96.93,54.99,96.63,58.12z"/>
	<path class="st0" d="M68.67,108.21c5.07,0.01,8.85,3.9,8.83,9.09c-0.02,4.96-3.94,8.78-9.02,8.76c-5.05-0.01-8.85-3.92-8.83-9.09
		C59.67,112,63.59,108.19,68.67,108.21z M68.65,121.35c2.26-0.02,4.21-2.01,4.17-4.26c-0.04-2.26-2.01-4.21-4.26-4.21
		c-2.23,0-4.23,1.98-4.24,4.22C64.31,119.41,66.31,121.37,68.65,121.35z"/>
	<path class="st0" d="M44.21,95.05c-0.06-0.83,0.34-1.37,0.84-1.88c2.63-2.63,5.27-5.25,7.88-7.9c0.61-0.62,1.02-0.67,1.69-0.04
		c2.57,2.44,2.59,2.42,0.11,4.9c-1.36,1.36-2.7,2.76-4.1,4.08c-0.66,0.62-0.67,1.03-0.01,1.66c1.89,1.81,3.68,3.72,5.58,5.52
		c0.76,0.72,0.69,1.18-0.02,1.89c-2.38,2.39-2.35,2.41-4.7,0.06c-2.11-2.11-4.22-4.22-6.33-6.33C44.59,96.46,44.1,95.86,44.21,95.05
		z"/>
	<path class="st0" d="M92.94,94.97c0.07,0.74-0.21,1.31-0.68,1.78c-2.72,2.73-5.34,5.58-8.22,8.14c-1.51,1.34-1.92-0.95-2.86-1.48
		c-0.61-0.35-1.33-0.93-0.39-1.83c1.89-1.81,3.68-3.72,5.58-5.52c0.77-0.73,0.87-1.19,0.04-1.97c-1.88-1.76-3.63-3.64-5.48-5.42
		c-0.68-0.66-0.7-1.1-0.02-1.79c2.42-2.48,2.39-2.51,4.8-0.1c2.08,2.08,4.16,4.16,6.23,6.23C92.5,93.57,93.03,94.14,92.94,94.97z"/>
	<path class="st0" d="M60.22,102.36c0.12-0.2,0.27-0.49,0.46-0.74c3.99-5.32,8-10.63,11.97-15.97c0.57-0.77,0.99-0.83,1.77-0.26
		c2.82,2.07,2.84,2.04,0.74,4.85c-3.52,4.7-7.07,9.38-10.56,14.1c-0.65,0.88-1.15,1.01-1.96,0.27c-0.57-0.52-1.25-0.94-1.86-1.42
		C60.53,103.01,60.23,102.84,60.22,102.36z"/>
</g>
</svg>
