<svg id="Layer_1" data-name="Layer 1" xmlns="http://www.w3.org/2000/svg" viewBox="0 0 85.58 85.57"><defs><style>.cls-1{fill:#8fa194;}</style></defs><path class="cls-1" d="M85.58,44c-.27.17-.22.49-.31.74a6,6,0,0,1-5.57,4.07,5.92,5.92,0,0,1-5.65-3.93,1,1,0,0,0-1.12-.77c-1,0-2.06,0-3.09,0-.45,0-.62.13-.66.61a25.85,25.85,0,0,1-6.32,15.38c-.39.45-.35.68,0,1.07,1.56,1.52,3.09,3.05,4.61,4.61a.75.75,0,0,0,1.16.14,9.81,9.81,0,0,1,15.18,7.93,9.8,9.8,0,0,1-19.32,2.55,9.56,9.56,0,0,1,1.38-7.74.67.67,0,0,0-.1-1q-2.4-2.33-4.73-4.72c-.39-.41-.62-.35-1,0a25.84,25.84,0,0,1-15.37,6.34c-.54,0-.65.25-.63.72,0,1,0,2.06,0,3.09,0,.6.17.84.75,1.05a5.93,5.93,0,0,1,4,5.88,6,6,0,0,1-4.61,5.49,5.95,5.95,0,0,1-3.5-11.34c.68-.24.89-.54.85-1.22,0-1,0-2,0-3,0-.45-.13-.63-.61-.66A25.78,25.78,0,0,1,25.46,62.8c-.39-.33-.6-.32-.95,0q-2.37,2.41-4.78,4.79c-.36.34-.35.56-.08,1a9.75,9.75,0,0,1-2,13.07,5.6,5.6,0,0,1-.74.54,1.27,1.27,0,0,1-1.72-.27,1.22,1.22,0,0,1,.26-1.77,9.81,9.81,0,0,0,1.86-1.78A7.26,7.26,0,0,0,10.22,66.9a7.35,7.35,0,0,0-5.85,5.82A7.25,7.25,0,0,0,11,81.27c1.31.09,1.91.57,1.8,1.45s-.83,1.26-2.08,1.1a9.79,9.79,0,0,1-8.94-9,9.9,9.9,0,0,1,8.35-10.5,9.81,9.81,0,0,1,7,1.64c.37.26.57.17.84-.11,1.61-1.62,3.22-3.24,4.85-4.84.32-.31.37-.52,0-.88a25.79,25.79,0,0,1-6.43-15.42c0-.5-.2-.68-.7-.67-1,0-2.06,0-3.09,0-.59,0-.85.17-1.05.75a6,6,0,0,1-5.89,3.94,6,6,0,0,1-5.49-4.6,5.94,5.94,0,0,1,4.08-7.08,5.88,5.88,0,0,1,7.26,3.57,1,1,0,0,0,1.23.85,26.9,26.9,0,0,1,2.84,0c.64,0,.8-.21.82-.81a23.19,23.19,0,0,1,1.05-5.64A1.31,1.31,0,0,1,19.05,34a1.33,1.33,0,0,1,.82,1.81,1,1,0,0,1,0,.17c-2.49,9.43-.35,17.67,6.73,24.39a22.56,22.56,0,0,0,18.88,6.19,23.6,23.6,0,0,0,20.81-19A23.95,23.95,0,0,0,22,30.88a1.59,1.59,0,0,1-1.26,1,1.27,1.27,0,0,1-1.11-1.95,21.64,21.64,0,0,1,3.07-4.35c.42-.46.4-.72,0-1.14-1.59-1.53-3.14-3.09-4.67-4.67-.37-.37-.6-.37-1-.08A9.45,9.45,0,0,1,7,20.21a9.41,9.41,0,0,1-5.31-8.39,9.79,9.79,0,0,1,19.52-1.35,9.69,9.69,0,0,1-1.6,6.5c-.27.4-.28.63.07,1,1.62,1.57,3.21,3.17,4.79,4.78.35.36.56.38.95,0A25.82,25.82,0,0,1,40.9,16.39c.48,0,.61-.21.6-.66,0-1.14,0-2.28,0-3.42a.59.59,0,0,0-.45-.66,6,6,0,0,1-4.24-5.86A6,6,0,0,1,41.44.15c.07,0,.12-.1.18-.15H44c.06.05.11.13.18.15,2.86.9,4.53,2.93,4.63,5.64a6,6,0,0,1-4.24,5.86c-.43.16-.45.4-.45.74,0,1.09,0,2.17,0,3.26,0,.61.23.74.78.75a15.54,15.54,0,0,1,2.15.24,25.94,25.94,0,0,1,13.19,6.18c.32.28.51.28.82,0,1.62-1.64,3.25-3.28,4.9-4.9A.55.55,0,0,0,66,17a9.87,9.87,0,0,1-1.63-6.89,9.87,9.87,0,0,1,10.7-8.38c4.9.69,8.22,3.94,8.74,8.87a9.33,9.33,0,0,1-4.17,8.93,1.26,1.26,0,0,1-2-.78c-.12-.68.3-1.08.78-1.45a7,7,0,0,0,2.9-5.66,6.85,6.85,0,0,0-4-6.62,6.88,6.88,0,0,0-7.76.79A6.89,6.89,0,0,0,67,13.07a7.08,7.08,0,0,0,6.66,5.68c1.09.06,1.68.55,1.63,1.37s-.73,1.27-1.84,1.18a9.45,9.45,0,0,1-4.83-1.65c-.47-.34-.7-.22-1,.13-1.54,1.57-3.09,3.13-4.66,4.66-.41.4-.43.64,0,1.08a25.73,25.73,0,0,1,6.32,15.37c0,.49.21.62.66.61,1,0,2.07,0,3.09,0a1,1,0,0,0,1.12-.78A5.93,5.93,0,0,1,79.7,36.8a6,6,0,0,1,5.57,4.07c.09.25,0,.57.31.75ZM81.3,74A7.24,7.24,0,1,0,74,81.29,7.18,7.18,0,0,0,81.3,74ZM11.55,4.28a7.24,7.24,0,1,0,7.21,7.28A7.19,7.19,0,0,0,11.55,4.28ZM46.2,6a3.41,3.41,0,1,0-6.82,0A3.41,3.41,0,1,0,46.2,6ZM9.38,42.8A3.43,3.43,0,1,0,6,46.19,3.39,3.39,0,0,0,9.38,42.8Zm70.26,3.4a3.41,3.41,0,1,0,0-6.82,3.41,3.41,0,1,0,0,6.82Zm-36.78,30a3.38,3.38,0,0,0-3.48,3.38,3.41,3.41,0,1,0,6.82.07A3.38,3.38,0,0,0,42.86,76.2Z"/><path class="cls-1" d="M28.6,51.48c0-.8,0-1.61,0-2.42.05-1.12.07-2.1-1.17-2.79a2.93,2.93,0,0,1-1.16-2.73c0-1.86,0-3.73,0-5.59a3.75,3.75,0,0,1,3.58-4,1,1,0,0,1,.25,0c3.65.49,6.93-.69,10.16-2.19,2.34-1.09,4.76-2,7.15-3a1.27,1.27,0,0,0,.79-.85,4.08,4.08,0,0,1,4.63-2.69,4,4,0,0,1,3.33,3.93c0,1.33,0,2.67,0,4,0,.53.16.74.66.94a6.74,6.74,0,0,1,4.5,5.45A6.88,6.88,0,0,1,57,47.19a1,1,0,0,0-.82,1.18c.06,1.28,0,2.56,0,3.84a4.09,4.09,0,0,1-8,1.22,1.27,1.27,0,0,0-.8-.84c-3.42-1.41-6.83-2.82-10.23-4.26-.64-.28-.79-.16-.78.52,0,1.95,0,3.9,0,5.85,0,2.59-1.6,4.34-3.94,4.33s-3.88-1.75-3.88-4.29ZM48,40.69c0-2.87,0-5.73,0-8.6,0-.61-.1-.77-.73-.51Q42.18,33.74,37,35.83a.84.84,0,0,0-.64.9q0,4,0,7.93a.76.76,0,0,0,.57.85q5.16,2.12,10.29,4.29c.65.28.72.07.72-.52C48,46.42,48,43.55,48,40.69Zm5.68,0c0-3.68,0-7.36,0-11,0-1.24-.57-1.94-1.57-1.94s-1.6.7-1.6,1.93V51.71c0,1.22.61,1.94,1.59,1.95s1.58-.72,1.58-1.94C53.67,48.05,53.66,44.37,53.66,40.7Zm-19.8,0c0-1.19,0-2.39,0-3.59,0-.39-.09-.62-.55-.61-1.09,0-2.17,0-3.26,0a1.07,1.07,0,0,0-1.19,1.19V43.6A1.08,1.08,0,0,0,30,44.81c1.09,0,2.17,0,3.26,0,.44,0,.58-.16.57-.58C33.84,43.08,33.86,41.91,33.86,40.74Zm0,10.74V49.39c0-2.09,0-2.07-2.1-2-.47,0-.63.16-.63.63,0,2.28,0,4.56,0,6.85,0,1,.54,1.64,1.38,1.62s1.3-.6,1.32-1.6S33.86,52.62,33.86,51.48ZM56.19,36.69c0,2.57,0,5.06,0,7.56,0,.4.11.49.48.31a4.51,4.51,0,0,0,2.22-4.1A4.19,4.19,0,0,0,56.19,36.69Z"/></svg>