<svg id="Layer_1" data-name="Layer 1" xmlns="http://www.w3.org/2000/svg" viewBox="0 0 85.58 85.57"><defs><style>.cls-1{fill:#4e734e;}</style></defs><path class="cls-1" d="M32.44,82.8H11.83a9,9,0,0,1-9-9.44,3.75,3.75,0,0,1,3-3.45c.82-.14.87-.51.87-1.18,0-9.36.09-18.73,0-28.1a6.85,6.85,0,0,1,7-6.95c9.34.15,18.68,0,28,.06.72,0,1.18-.09,1.44-.89a3.71,3.71,0,0,1,2.15-2.17A1.84,1.84,0,0,0,46.31,28a3.43,3.43,0,0,1-.3-1.16c0-.69-.36-.76-.92-.76-3.47,0-6.93,0-10.39,0-.78,0-1-.24-1-1,0-2.82,0-5.64,0-8.45,0-.67-.2-.89-.87-.88-3.71,0-7.41,0-11.12,0-.65,0-.82.23-.81.84,0,2.85,0,5.69,0,8.54,0,.75-.24,1-1,.95q-8.13,0-16.26,0c-.76,0-1-.26-.94-1q0-10.68,0-21.34c0-.76.2-1,1-1q8.1,0,16.19,0c.77,0,1,.22,1,1,0,2.82,0,5.64,0,8.45,0,.66.18.89.86.89,3.7,0,7.41,0,11.11,0,.65,0,.83-.22.82-.84,0-2.85,0-5.69,0-8.54,0-.74.23-1,1-1q8.13,0,16.27,0c.75,0,1,.25,1,1,0,2.82,0,5.64,0,8.46,0,.71.22.91.92.91,3.65,0,7.3,0,10.95,0,.78,0,.94-.27.93-1,0-2.76,0-5.53,0-8.29,0-.78.17-1.08,1-1.07q8.1,0,16.19,0c.71,0,1,.19,1,1q0,10.71,0,21.42c0,.73-.21,1-1,1-2.61,0-5.21,0-7.81,0-.6,0-1,.07-1,.8a4.8,4.8,0,0,1-.35,1.31,1.82,1.82,0,0,0,1,2.4,4.06,4.06,0,0,1,2.66,4.17,5.16,5.16,0,0,1-.74,3.3,4.63,4.63,0,0,1-1.74,1.39A1.79,1.79,0,0,0,72.77,42c.76,2,.1,3.56-1.35,5a4.28,4.28,0,0,1-5,1.25,1.76,1.76,0,0,0-2.49,1,4,4,0,0,1-4.14,2.59c-1.74,0-1.53-.23-1.53,1.54,0,5.13,0,10.25,0,15.38,0,.66.13,1,.88,1.09a3.77,3.77,0,0,1,3,3.77,9,9,0,0,1-9,9.13Zm0-13c7.38,0,14.76,0,22.14,0,.8,0,1.06-.19,1.06-1,0-6.28,0-12.56,0-18.84,0-3.08,0-6.17,0-9.26a3.94,3.94,0,0,0-4.26-4.28c-1.2,0-2.41,0-3.62,0H13.84c-1.69,0-3.15.44-4,2A5.17,5.17,0,0,0,9.34,41v27.7c0,1.08,0,1.08,1.12,1.08Zm0,10.31h19A20.77,20.77,0,0,0,53.93,80a6.26,6.26,0,0,0,5.42-5.45c.17-1.59-.23-2-1.83-2H42.71c-1.15,0-1.15,0-1.16,1.13a3.81,3.81,0,0,1-4,4c-3.3,0-6.61-.09-9.9,0a4,4,0,0,1-4.2-4.21c.1-.8-.24-1-1-1-5,0-10,0-15,0a4.37,4.37,0,0,0-.95.09,1.18,1.18,0,0,0-1,1.31A6.34,6.34,0,0,0,10,79.77a9.1,9.1,0,0,0,2.7.34ZM45.86,33.72c1.26,0,2.41,0,3.56,0,.82,0,1.15-.22,1.36-1a9.06,9.06,0,0,1,10-6.69,9.17,9.17,0,0,1,7.62,6.84,9.06,9.06,0,0,1-3.46,9.55,8.76,8.76,0,0,1-5.74,1.73c-.43,0-.88-.08-.87.6,0,1.24,0,2.47,0,3.71,0,.38.15.64.52.68,1.4.17,2.2,0,2.74-1.2a4.44,4.44,0,0,1,5.73-2.31,2.29,2.29,0,0,0,2.8-2.81,4.48,4.48,0,0,1,2.33-5.74A2,2,0,0,0,73.67,35a1.89,1.89,0,0,0-1.25-1.93,4.48,4.48,0,0,1-2.36-5.66,1.87,1.87,0,0,0-.56-2.28,1.87,1.87,0,0,0-2.28-.57,4.47,4.47,0,0,1-5.63-2.28,2.24,2.24,0,0,0-4.09,0,4.48,4.48,0,0,1-5.63,2.28,1.87,1.87,0,0,0-2.28.56A1.88,1.88,0,0,0,49,27.39,4.54,4.54,0,0,1,46.75,33C46.45,33.19,46.07,33.23,45.86,33.72ZM5.47,14.4c0,2.71,0,5.42,0,8.13,0,.63.15.9.85.9q5.55,0,11.1,0c.6,0,.86-.14.85-.8q0-8.17,0-16.33c0-.66-.23-.82-.84-.82-3.7,0-7.4,0-11.1,0-.69,0-.86.25-.86.89C5.49,9,5.47,11.72,5.47,14.4Zm30.93,0c0,2.74,0,5.47,0,8.21,0,.63.19.84.83.83,2.63,0,5.25-.05,7.88,0,1.35,0,2.58,0,3.55-1.16.28-.35.54-.58.53-1.07,0-5,0-9.92,0-14.88,0-.7-.26-.85-.9-.85-3.67,0-7.35,0-11,0-.66,0-.89.19-.88.87C36.42,9,36.4,11.7,36.4,14.38Zm43.7.1c0-2.74,0-5.47,0-8.21,0-.51-.09-.8-.7-.8q-5.72,0-11.43,0c-.49,0-.66.19-.66.67q0,7.4,0,14.8c0,.48.16.58.61.56a4,4,0,0,1,3.17,1.31,1.79,1.79,0,0,0,1.49.6c2.17,0,4.34,0,6.52,0,.75,0,1-.19,1-1C80.07,19.79,80.1,17.13,80.1,14.48ZM58.29,39.94c0,1.4.08,1.46,1.24,1.48a6.34,6.34,0,1,0-5.76-8.93c-.54,1.21-.54,1.21.67,1.76a1.92,1.92,0,0,1,.35.18c.56.43.78.33,1-.39A3.8,3.8,0,0,1,59,31.16a3.94,3.94,0,0,1,4.1,2.07,4,4,0,0,1-.48,4.38A3.88,3.88,0,0,1,58.81,39c-.5-.08-.61,0-.52.51A2.57,2.57,0,0,1,58.29,39.94Zm6.34-18.32c0-1.88,0-3.64,0-5.4,0-.48-.39-.43-.71-.43-3.78,0-7.57,0-11.35,0-.52,0-.71.19-.7.71,0,1.45,0,2.9,0,4.35a.92.92,0,0,0,.76,1,1.81,1.81,0,0,0,2.49-1.05A4,4,0,0,1,58,18.34a11.07,11.07,0,0,1,2.16-.08,3.91,3.91,0,0,1,3.77,2.4A1.6,1.6,0,0,0,64.63,21.62ZM32.5,72.49H27.27c-1.19,0-1.51.51-1,1.64a1.28,1.28,0,0,0,1.27.81c3.33,0,6.65,0,10,0a1.41,1.41,0,0,0,.69-.2,1.62,1.62,0,0,0,.67-1.84c-.1-.69-.72-.39-1.11-.4C36,72.47,34.24,72.49,32.5,72.49Zm27-38.61a1.19,1.19,0,1,0,1.19,1.17A1.25,1.25,0,0,0,59.53,33.88Z"/><path class="cls-1" d="M32.48,38.88c5.9,0,11.81,0,17.71,0,2,0,3,1,3,2.95V64.38c0,2-1,3-3,3H14.77c-2,0-3-1-3-3V41.83c0-2,1-2.95,3-2.95C20.67,38.87,26.57,38.88,32.48,38.88Zm0,2.68H15.58c-1.08,0-1.08,0-1.08,1,0,7,0,14,0,21,0,.79.18,1.06,1,1q17,0,34,0c.85,0,1-.27,1-1,0-7,0-14,0-21,0-1,0-1-1.08-1Z"/><path class="cls-1" d="M11.78,10.63c-1,0-2.09,0-3.13,0-.52,0-.72-.19-.71-.71C8,7.55,7.69,8,9.78,8c1.74,0,3.48,0,5.22,0,.59,0,.8.2.79.79,0,2.27.25,1.86-1.84,1.9-.72,0-1.45,0-2.17,0Z"/><path class="cls-1" d="M11.86,15.79c-1.07,0-2.14,0-3.21,0-.51,0-.72-.18-.71-.7,0-2.41-.27-1.95,1.91-2,1.71,0,3.43,0,5.14,0,.59,0,.81.19.8.78,0,2.27.25,1.87-1.84,1.91-.69,0-1.39,0-2.09,0Z"/><path class="cls-1" d="M11.87,20.94c-1.07,0-2.14,0-3.21,0-.51,0-.73-.17-.72-.7,0-2.41-.27-1.95,1.91-2,1.71,0,3.42,0,5.14,0,.58,0,.81.18.8.78,0,2.28.25,1.87-1.83,1.91-.7,0-1.39,0-2.09,0Z"/><path class="cls-1" d="M42.76,10.63c-1.07,0-2.14,0-3.22,0-.46,0-.68-.16-.67-.65,0-2.49-.27-2,1.86-2,1.71,0,3.43,0,5.14,0,.61,0,.86.17.85.82,0,2.22.24,1.84-1.79,1.87-.73,0-1.45,0-2.17,0Z"/><path class="cls-1" d="M42.74,15.79c-1.05,0-2.09,0-3.14,0-.56,0-.75-.22-.74-.76,0-2.32-.26-1.9,1.89-1.93,1.71,0,3.43,0,5.14,0,.64,0,.84.23.83.85,0,2.18.24,1.81-1.81,1.85C44.18,15.8,43.46,15.79,42.74,15.79Z"/><path class="cls-1" d="M42.76,20.94c-1,0-2.09,0-3.13,0-.53,0-.78-.16-.77-.73,0-2.36-.25-1.93,1.86-2,1.69,0,3.38,0,5.06,0,.68,0,1,.16.94.89-.06,2.11.23,1.77-1.79,1.8C44.21,21,43.49,21,42.76,20.94Z"/><path class="cls-1" d="M73.69,10.64c-1,0-2.09,0-3.13,0-.54,0-.78-.15-.77-.73,0-2.36-.26-1.92,1.86-2,1.69,0,3.37,0,5.06,0,.68,0,1,.16.94.9-.07,2.11.23,1.76-1.79,1.79C75.14,10.65,74.41,10.64,73.69,10.64Z"/><path class="cls-1" d="M73.71,15.79c-1.07,0-2.14,0-3.21,0-.52,0-.72-.18-.71-.7,0-2.39-.25-1.95,1.84-2,1.74,0,3.48,0,5.22,0,.59,0,.8.19.79.79,0,2.26.25,1.86-1.84,1.9-.7,0-1.39,0-2.09,0Z"/><path class="cls-1" d="M73.78,18.26c1,0,2.09,0,3.13,0,.5,0,.73.16.73.7,0,2.42.26,2-1.9,2-1.72,0-3.43,0-5.15,0-.57,0-.82-.16-.8-.77,0-2.29-.25-1.88,1.82-1.92C72.33,18.25,73.06,18.26,73.78,18.26Z"/><path class="cls-1" d="M32.48,62.18h-9.1A6.48,6.48,0,0,1,17,56.52c-.3-3.62,1.9-6.86,5.27-7.21a4,4,0,0,0,3.14-1.88,9.06,9.06,0,0,1,14.93,1,1.26,1.26,0,0,0,1.27.73A6.39,6.39,0,0,1,48,54.83a6.59,6.59,0,0,1-5.36,7.3,6,6,0,0,1-1,0Zm0-2.69c2.87,0,5.74,0,8.61,0a3.82,3.82,0,0,0,3.76-2.14,3.64,3.64,0,0,0-.33-3.88c-1-1.42-2.62-1.87-4.6-1.18-.78.27-1.15.12-1.28-.68a4.19,4.19,0,0,0-.14-.47,6.35,6.35,0,0,0-11.9-.43c-.24.56-.18,1.36-.69,1.66s-1.15-.23-1.75-.35A3.74,3.74,0,0,0,20,54.24a3.78,3.78,0,0,0,1.44,4.6,4.72,4.72,0,0,0,2.61.65Z"/></svg>