<svg id="Layer_1" data-name="Layer 1" xmlns="http://www.w3.org/2000/svg" viewBox="0 0 85.58 85.57"><defs><style>.cls-1{fill:#385438;}</style></defs><path class="cls-1" d="M65.56,37.21c-4.2-.79-8.27-1.57-12.35-2.31-.67-.12-.85-.37-.75-1,.3-1.91.27-1.93,2.2-1.57l18.82,3.5a2.58,2.58,0,0,1,1.42.74q3.66,3.7,7.36,7.36a1.61,1.61,0,0,1,.58,1.68,1.64,1.64,0,0,1-1.43,1.07c-1.38.3-2.77.61-4.16.87-.67.12-1,.39-.93,1.13.06,1.63,0,3.27,0,4.91,0,.65-.22.86-.86.85-2.22-.06-1.85.25-1.88-1.86,0-1.12,0-2.24,0-3.36,0-.66-.15-.85-.83-.69-3.33.75-6.66,1.46-10,2.18L52.09,53a1.89,1.89,0,0,1-2-.66c-1.5-1.78-3-3.53-4.53-5.29l-.5-.54c-.25.22-.15.49-.15.71V76.48c0,1,0,1,1,.74,2.36-.59,4.72-1.16,7.06-1.79.67-.18.93,0,1.08.65.49,2.26.75,1.81-1.42,2.37-2.7.71-5.41,1.34-8.1,2a3.75,3.75,0,0,1-1.94,0L12.19,72.89c-1.28-.32-1.53-.66-1.53-2,0-7.35,0-14.7,0-22,0-.83-.2-1.21-1.06-1.35-1.43-.23-2.84-.57-4.24-.92A1.41,1.41,0,0,1,4.68,44c2.48-2.51,5-5,7.47-7.49a2.69,2.69,0,0,1,1.52-.71c6.54-1.22,13.09-2.43,19.62-3.69.72-.14.92.11,1.05.71.4,1.9.41,1.9-1.48,2.26L21.34,37.24l6.59,1.15c4.91.86,9.83,1.7,14.74,2.58a10,10,0,0,0,3.4-.31q9.52-1.62,19-3.3A3.61,3.61,0,0,0,65.56,37.21Zm-23.43,9.3a1.32,1.32,0,0,0-.64.55c-1.47,1.72-3,3.42-4.41,5.16a2.09,2.09,0,0,1-2.31.76q-10.19-2.25-20.38-4.45c-1-.21-1-.21-1,.8,0,6.64,0,13.27,0,19.9,0,.83.28,1.12,1.05,1.31Q27.71,73.83,41,77.18c1.12.28,1.12.28,1.12-.86V46.51Zm10,3.57.57-.09,25.17-5.5c.21-.05.5,0,.59-.21s-.19-.37-.33-.51c-1.48-1.5-3-3-4.45-4.47a1.15,1.15,0,0,0-1.15-.38c-3.57.65-7.15,1.25-10.72,1.87C56.9,41.65,52,42.52,47,43.36c-.72.13-.68.34-.27.81,1.59,1.83,3.16,3.68,4.74,5.53C51.67,49.9,51.83,50.15,52.16,50.08Zm-17.34,0c.42.08.58-.26.78-.5,1.46-1.7,2.92-3.4,4.36-5.1.23-.27.68-.5.56-.85s-.65-.29-1-.36c-8.33-1.45-16.66-2.88-25-4.34a1.18,1.18,0,0,0-1.23.36c-1.47,1.5-3,3-4.45,4.46-.15.15-.43.27-.35.51s.37.18.57.22L29.86,49Z"/><path class="cls-1" d="M43.44,38.69a15.55,15.55,0,0,1-2.37-.12,5.26,5.26,0,0,1-4.19-5.17,20.21,20.21,0,0,0-.09-3.11,3.58,3.58,0,0,0-1.21-2.06A11.89,11.89,0,0,1,32,16a11.44,11.44,0,0,1,8.75-8.65,11.79,11.79,0,0,1,14.39,9.49,12,12,0,0,1-3.84,11.43A3.57,3.57,0,0,0,50.12,31c0,.85,0,1.7,0,2.54A5.21,5.21,0,0,1,45,38.66H43.44ZM40.31,28.05h1.31a.46.46,0,0,0,.47-.25,2,2,0,0,0-.51-2c-.85-.64-1.66-1.34-2.56-1.91a4.31,4.31,0,0,1-2.16-4.33,3.21,3.21,0,0,1,2-3.09,3.11,3.11,0,0,1,3.55.7c1.07,1,1.08,1,2.17,0l.12-.11A3.25,3.25,0,0,1,50,18.46a4.38,4.38,0,0,1-1.56,5.1,7.68,7.68,0,0,0-.78.6c-.52.5-.87.45-1.3-.16-1.1-1.53-1.15-1.54.35-2.64a1.57,1.57,0,0,0,.68-1.63c-.09-.61-.49-.76-1-.38a3.92,3.92,0,0,0-.42.4,3.32,3.32,0,0,1-4.95,0c-.33-.32-.61-.9-1.21-.46-.34.26-.24,1.38.13,1.74a6.51,6.51,0,0,0,.58.46l2.29,1.72c2.48,1.88,2,1.23,2.06,4a4.1,4.1,0,0,0,0,.49.33.33,0,0,0,.31.33c.84,0,1.69.06,2.53,0,.53,0,.59-.67.92-1s.36-.41.56-.59a9.39,9.39,0,0,0,3.25-8.66,9,9,0,0,0-9.82-7.85,8.8,8.8,0,0,0-7.47,5.64,9.16,9.16,0,0,0,1.2,9.36c.56.79,1.42,1.31,1.93,2.11A1.75,1.75,0,0,0,40.31,28.05ZM43.5,32h3.19c.4,0,.68,0,.69-.56s-.23-.65-.7-.64q-3.18,0-6.37,0c-.4,0-.68.05-.69.56s.23.65.7.64Zm-3.28,2.77c1.26,1.7,5.72,1.64,6.46,0Z"/><path class="cls-1" d="M60.83,56.43a1.91,1.91,0,0,1,1.55,1c.46.57.89.4,1.43.19s.88-.5.8-1.14a3.56,3.56,0,0,1,0-.73,1.38,1.38,0,0,1,1.49-1.41c1.42,0,2.84,0,4.26,0s1.91.44,1.85,1.85a1.31,1.31,0,0,0,1,1.51,1,1,0,0,0,1.21-.24c1.38-1.38,1.84-1.36,3.23,0,.8.79,1.6,1.57,2.38,2.38,1,1,1,1.73,0,2.7a1.25,1.25,0,0,0-.34,1.75c.25.49.5.74,1,.69a3.66,3.66,0,0,1,.74,0,1.38,1.38,0,0,1,1.44,1.53c0,1.45,0,2.89,0,4.34,0,1.25-.49,1.71-1.74,1.75-.56,0-1.14-.17-1.49.63A1.34,1.34,0,0,0,80,75c1,.94,1,1.64,0,2.64s-1.81,1.83-2.72,2.73-1.67,1-2.67,0c-.83-.81-1.08-.83-2.1-.22a.7.7,0,0,0-.34.68,9.51,9.51,0,0,1,0,1.07,1.34,1.34,0,0,1-1.4,1.32c-1.58,0-3.17,0-4.75,0-1,0-1.48-.59-1.44-1.77,0-.8-.12-1.33-1-1.6-.53-.16-.87-.18-1.21.26a4.26,4.26,0,0,1-.52.52,1.4,1.4,0,0,1-2.12,0c-1.11-1.05-2.2-2.13-3.25-3.24-.73-.79-.65-1.5.24-2.35.54-.51.85-.93.44-1.73A1.17,1.17,0,0,0,56,72.57c-1.65,0-2-.38-2-2,0-1.29,0-2.57,0-3.85S54.42,65,55.67,65c.57,0,1.14.17,1.49-.63a1.33,1.33,0,0,0-.36-1.82c-1-1-1-1.65,0-2.65s1.85-1.86,2.78-2.78A1.67,1.67,0,0,1,60.83,56.43ZM80.15,68.78c.12-.63-.08-.94-.77-1A2.55,2.55,0,0,1,77.3,66c-.19-.51-.41-1-.63-1.51A2.53,2.53,0,0,1,77,61.63c.5-.58.05-.82-.27-1.11s-.53-.87-1.17-.33a2.51,2.51,0,0,1-2.84.32c-.45-.2-.9-.4-1.36-.57a2.69,2.69,0,0,1-1.95-2.3c-.08-.72-.54-.62-1-.62s-.89-.06-1,.64a2.67,2.67,0,0,1-2,2.29c-.49.17-1,.4-1.44.6a2.45,2.45,0,0,1-2.69-.32c-.59-.52-.85-.11-1.18.24s-.83.56-.29,1.18a2.5,2.5,0,0,1,.32,2.77c-.2.47-.42,1-.59,1.43a2.64,2.64,0,0,1-2.24,1.91c-.74.09-.68.54-.68,1s0,.88.67,1a2.64,2.64,0,0,1,2.24,1.91c.16.43.34.86.54,1.28a2.61,2.61,0,0,1-.3,3c-.55.66.12.84.39,1.16s.5.72,1,.26a2.59,2.59,0,0,1,3-.29,11.26,11.26,0,0,0,1.13.48,2.74,2.74,0,0,1,2.07,2.39c.09.74.6.55,1,.57s.85,0,.93-.6a2.74,2.74,0,0,1,2-2.35A12.8,12.8,0,0,0,72.7,77a2.51,2.51,0,0,1,2.84.3c.57.49.82.1,1.11-.25s.9-.52.35-1.16A2.57,2.57,0,0,1,76.7,73c.21-.47.41-1,.6-1.43a2.57,2.57,0,0,1,2.07-1.78C80,69.69,80.29,69.42,80.15,68.78Z"/><path class="cls-1" d="M35.13,8.69a1.38,1.38,0,0,1-.48.7c-1.32,1.35-1.32,1.35-2.62,0-.41-.41-.8-.82-1.22-1.22s-.28-.51,0-.83c1.43-1.69,1.42-1.7,3-.15l1.1,1.1A3.16,3.16,0,0,1,35.13,8.69Z"/><path class="cls-1" d="M53.64,10.55a3.15,3.15,0,0,1-1-.84c-1.11-1.1-1-.88,0-1.92.5-.51,1-1,1.51-1.51a.54.54,0,0,1,.89,0c1.66,1.44,1.66,1.43.12,3-.35.35-.69.7-1,1A.68.68,0,0,1,53.64,10.55Z"/><path class="cls-1" d="M44.87,3.86V4c0,2-.14,2.11-2.19,1.85-.37,0-.54-.19-.54-.55V2.38a.27.27,0,0,1,0-.16c.57-.8,1.39-.25,2.08-.38.44-.08.64.19.63.63s0,.92,0,1.39Z"/><path class="cls-1" d="M28.39,20.3H28.3c-2.11,0-2.1,0-1.91-2.14,0-.4.18-.59.59-.59h2.86a.27.27,0,0,1,.16,0c.88.52.29,1.35.43,2,.08.4-.09.69-.58.68s-1,0-1.46,0Z"/><path class="cls-1" d="M58.55,20.3h-.08c-2.11,0-2.11,0-1.91-2.14,0-.39.17-.59.59-.59,1,0,1.9,0,2.85,0s.64.73.57,1.15.54,1.41-.55,1.56a10.29,10.29,0,0,1-1.47,0Z"/><path class="cls-1" d="M61.15,68.76A7.27,7.27,0,1,1,68.39,76,7.16,7.16,0,0,1,61.15,68.76Zm7.25,4.51a4.51,4.51,0,1,0-4.5-4.51A4.61,4.61,0,0,0,68.4,73.27Z"/></svg>