<svg id="Layer_1" data-name="Layer 1" xmlns="http://www.w3.org/2000/svg" viewBox="0 0 80.64 80.64"><defs><style>.cls-1{fill:#8fa194;}</style></defs><path class="cls-1" d="M40.3,80.57H20.61c-1.07,0-1,0-1.08-1.08a6.58,6.58,0,0,1,5.19-6.72,8.44,8.44,0,0,1,1.94-.08c.49,0,.67-.2.66-.68,0-1.19,0-2.38,0-3.56,0-.71-.26-.86-.9-.86q-7.29,0-14.59,0a6.42,6.42,0,0,1-6.56-6.55c0-3.16,0-6.32,0-9.48a1.43,1.43,0,0,0-.67-1.34A10.4,10.4,0,0,1,4.64,33a1.36,1.36,0,0,0,.65-1.27c0-2.4,0-4.81,0-7.21a6.45,6.45,0,0,1,6.27-6.28c1.95,0,3.89,0,5.84,0,.68,0,.87-.22.86-.88,0-4.38,0-8.75,0-13.13A3.9,3.9,0,0,1,22.4.07H58.3a3.9,3.9,0,0,1,4.14,4.18v12.8c0,1.17,0,1.17,1.21,1.17h5.43a6.44,6.44,0,0,1,6.32,6.31c0,1.13,0,2.27,0,3.4,0,.49.18.68.67.67,1.24,0,2.48,0,3.72,0,.59,0,.81.19.81.79q0,10.94,0,21.88c0,.6-.22.81-.81.79-1.19,0-2.38,0-3.56,0-.64,0-.84.2-.84.84,0,2.78,0,5.56,0,8.35A6.43,6.43,0,0,1,69,67.6c-4.89,0-9.78,0-14.66,0-.72,0-1,.16-1,.94.06,1.11,0,2.22,0,3.32,0,.64.2.88.84.83A6.25,6.25,0,0,1,59,74.36a6.54,6.54,0,0,1,2.11,5.7c0,.33-.16.5-.49.5H40.3Zm4-40.29c0,2.54,0,5.08,0,7.62,0,1.6-.18,1.43,1.42,1.44,1.06,0,1.06,0,1.06-1.08,0-4.51,0-9,0-13.53,0-.76.25-1,1-1q3,.06,6,0c.78,0,1,.28,1,1,0,1.54,0,3.08,0,4.62,0,.74.25.92.94.91,1.94,0,3.89,0,5.83,0,.71,0,.94-.19.93-.91,0-3.25,0-6.49,0-9.73,0-.8.2-1.08,1-1.06,2.83,0,5.67,0,8.51,0,.61,0,.89-.14.85-.81,0-.92,0-1.84,0-2.76-.08-2.34-1.28-3.81-3.6-4-2.15-.18-4.32-.06-6.48-.08a.54.54,0,0,0-.51.33c-1,1.91-2.62,2.4-4.59,2.38-3.51,0-7,0-10.53,0a3.41,3.41,0,0,0-2,.62c-1.94,1.33-3.89,2.65-5.88,3.9a3.39,3.39,0,0,1-5.15-1.77,4.16,4.16,0,0,1-.1-1.68c.07-.82-.21-1.08-1-1.07-3.35,0-6.7,0-10,0a4.17,4.17,0,0,1-4.08-2.26.78.78,0,0,0-.78-.45c-1.94,0-3.89,0-5.83,0a3.89,3.89,0,0,0-4,4.21c0,1.78,0,3.56,0,5.34,0,1,0,1,.93.8a9.38,9.38,0,0,1,3.3,0,10.27,10.27,0,0,1,8.56,8.32c.1.46.29.65.75.65,1.27,0,2.54,0,3.81,0,.54,0,.72-.21.7-.72,0-.78,0-1.57,0-2.35s.23-.84.85-.84c2,0,4,0,6,0,1,0,1,0,1,1.1V47.92c0,1.58-.16,1.37,1.45,1.44.82,0,1.06-.21,1-1,0-5.4,0-10.81,0-16.21,0-.69.19-.95.92-.94,2,0,4.05,0,6.07,0,.71,0,.94.22.93.93C44.26,34.83,44.28,37.56,44.29,40.28ZM40.34,57.23H16.44c-2.54,0-5.08,0-7.61,0-.61,0-.9.14-.86.81,0,.92,0,1.84,0,2.76a3.86,3.86,0,0,0,2.64,3.86,7.54,7.54,0,0,0,2.17.25H68.53a3.94,3.94,0,0,0,4.16-4.19c0-.73,0-1.46,0-2.19,0-1.29,0-1.29-1.25-1.29Zm0-54.34H22.8c-1.5,0-1.85.35-1.85,1.86V18.84c0,1.57.4,2,1.94,2h12.4c1.21,0,1.21,0,1.22,1.25,0,.87,0,1.73,0,2.6,0,.4-.06.85.35,1.09s.82,0,1.18-.27c2.07-1.37,4.14-2.74,6.2-4.13a3,3,0,0,1,1.8-.55c3.94,0,7.89,0,11.83,0,1.43,0,1.86-.44,1.86-1.9q0-7.08,0-14.17c0-1.51-.35-1.86-1.86-1.86Zm-.1,51.64H71.15c1.74,0,1.5.23,1.57-1.55,0-.78-.27-.95-1-.94-2.81,0-5.62,0-8.43,0-.79,0-1-.25-1-1,0-2.43,0-4.86,0-7.29,0-.52-.11-.8-.71-.79-2.11,0-4.21,0-6.32,0-.43,0-.65.14-.64.61,0,1.73,0,3.45,0,5.18,0,.41.16.61.57.59.25,0,.49,0,.73,0,1.29,0,1.29,0,1.29,1.27v.24c0,1.19,0,1.19-1.2,1.19H23.89c-.29,0-.4-.18-.45-.46-.34-1.85-.07-2.19,1.77-2.23a.86.86,0,0,1,.16,0c.5,0,.66-.2.66-.67,0-1.68,0-3.35,0-5,0-.47-.16-.69-.66-.68q-1.9,0-3.81,0c-.49,0-.69.19-.8.68A10.41,10.41,0,0,1,9.43,52C8,51.91,8,51.91,8,53.42c0,1.1,0,1.11,1.11,1.11ZM77.89,40.37c0-2.73,0-5.45,0-8.18,0-.72-.23-.91-.93-.91q-5.53,0-11.09,0c-.59,0-.86.12-.86.8q0,8.22,0,16.43c0,.65.22.83.84.83,3.73,0,7.45,0,11.17,0,.69,0,.88-.23.87-.89C77.87,45.77,77.89,43.07,77.89,40.37ZM40.31,72.68c3.18,0,6.36,0,9.55,0,.57,0,.83-.15.81-.78,0-1.18,0-2.37,0-3.56,0-.55-.18-.76-.75-.76q-9.59,0-19.18,0c-.58,0-.74.24-.72.78,0,1.13,0,2.26,0,3.4,0,.7.19.93.91.92C34.05,72.66,37.18,72.68,40.31,72.68ZM10.63,33.93A7.62,7.62,0,0,0,2.86,41.5a7.55,7.55,0,0,0,7.55,7.78,7.56,7.56,0,0,0,7.77-7.55A7.63,7.63,0,0,0,10.63,33.93ZM40.3,77.86c5.65,0,11.29,0,16.93,0,.25,0,.6.15.73-.16s-.16-.49-.32-.71a4,4,0,0,0-3.53-1.6c-3.27,0-6.54,0-9.8,0H26.65A4.23,4.23,0,0,0,23,77c-.15.21-.41.45-.3.72s.49.15.74.15C29.07,77.87,34.69,77.86,40.3,77.86ZM39.1,41.59c0,2.1,0,4.2,0,6.3,0,1.62-.18,1.4,1.49,1.46.78,0,1-.21,1-1,0-4.29,0-8.58,0-12.86,0-1.82.27-1.57-1.65-1.62-.64,0-.85.19-.84.83C39.12,37,39.1,39.29,39.1,41.59Zm10.37,1.32c0,1.65,0,3.29,0,4.93s-.2,1.45,1.53,1.51c.73,0,1-.18,1-.94,0-3.42,0-6.85,0-10.27,0-1.87.3-1.61-1.68-1.67-.68,0-.82.27-.81.87C49.49,39.19,49.47,41.05,49.47,42.91ZM28.73,44.12c0,1.22,0,2.43,0,3.64,0,1.78-.25,1.53,1.6,1.59.74,0,.9-.25.89-.94,0-2.55,0-5.11,0-7.67,0-1.88.3-1.62-1.67-1.67-.67,0-.83.25-.81.85C28.75,41.32,28.73,42.72,28.73,44.12Z"/><path class="cls-1" d="M35.16,59.72A1.35,1.35,0,1,1,33.81,61,1.28,1.28,0,0,1,35.16,59.72Z"/><path class="cls-1" d="M41.69,61.09a1.35,1.35,0,1,1-1.28-1.37A1.3,1.3,0,0,1,41.69,61.09Z"/><path class="cls-1" d="M46.87,61.09a1.35,1.35,0,1,1-1.27-1.37A1.28,1.28,0,0,1,46.87,61.09Z"/><path class="cls-1" d="M28.85,5.26a8.66,8.66,0,0,1,2.27.16,4,4,0,0,1,2.75,3c.13.58,0,1-.71.93-.43,0-.86,0-1.3,0a.72.72,0,0,1-.8-.53,1.07,1.07,0,0,0-1.12-.75c-.84,0-1.68,0-2.51,0a1.17,1.17,0,0,0-1.25,1.12,1.28,1.28,0,0,0,1.27,1.22c.84,0,1.67,0,2.51,0a4,4,0,0,1,.52,7.89,12.67,12.67,0,0,1-3.79,0,4,4,0,0,1-3.21-3c-.12-.62,0-1,.75-.95a8.52,8.52,0,0,0,1.13,0,.82.82,0,0,1,.95.54,1.23,1.23,0,0,0,1.24.76c.75,0,1.51,0,2.27,0a1.25,1.25,0,0,0,1.32-1.24c0-.68-.49-1.08-1.32-1.11a24.4,24.4,0,0,1-3.08-.12,4,4,0,0,1,.51-7.89Z"/><path class="cls-1" d="M46.77,11.8c0-.92,0-1.84,0-2.76a3.87,3.87,0,0,1,3.71-3.77c1,0,1.94,0,2.91,0a3.88,3.88,0,0,1,3.86,3.88c0,1.62-.09,3.25,0,4.86a4,4,0,0,1-4,4.42,15,15,0,0,1-3.07-.07,3.86,3.86,0,0,1-3.42-4C46.76,13.53,46.77,12.66,46.77,11.8Zm7.78,0V9.73a.81.81,0,0,0,0-.16C54.48,8.5,54.09,8.1,53,8.08h-2.1c-1,0-1.43.42-1.45,1.36,0,1.59,0,3.18,0,4.78A1.35,1.35,0,0,0,51,15.63h2a1.4,1.4,0,0,0,1.58-1.53C54.57,13.35,54.54,12.59,54.55,11.83Z"/><path class="cls-1" d="M36.4,11.8c0-1,0-1.89,0-2.84A3.88,3.88,0,0,1,40,5.28c1.21-.06,2.43,0,3.64,0,.46,0,.7.15.7.65,0,2.53.32,2.13-2,2.17-.62,0-1.24,0-1.86,0a1.55,1.55,0,0,0-1.26,2.09c.15.33.45.26.71.26,1.21,0,2.43,0,3.64,0,.59,0,.83.18.81.79,0,2.31.3,2-1.93,2-.84,0-1.67,0-2.51,0-.55,0-.78.18-.76.76a1.44,1.44,0,0,0,1.59,1.61c1,0,1.89,0,2.84,0,.54,0,.78.16.77.74,0,2.38.31,2.05-2,2.08a16,16,0,0,1-2.59-.11,3.87,3.87,0,0,1-3.34-3.87C36.39,13.58,36.4,12.69,36.4,11.8Z"/><path class="cls-1" d="M71.39,36.48c-1,0-2.1,0-3.15,0-.51,0-.74-.16-.73-.7,0-2.44-.27-2,1.92-2,1.72,0,3.44,0,5.17,0,.57,0,.82.17.81.78,0,2.3.25,1.89-1.84,1.93C72.85,36.5,72.12,36.48,71.39,36.48Z"/><path class="cls-1" d="M71.46,41.67c-1.08,0-2.16,0-3.23,0-.52,0-.73-.18-.72-.7,0-2.41-.25-2,1.85-2,1.75,0,3.5,0,5.25,0,.59,0,.81.19.8.79,0,2.28.25,1.88-1.85,1.92Z"/><path class="cls-1" d="M71.41,46.86c-1,0-2.11,0-3.16,0-.56,0-.75-.21-.74-.76,0-2.33-.27-1.91,1.9-1.94,1.72,0,3.45,0,5.17,0,.65,0,.85.23.83.85,0,2.2.25,1.83-1.82,1.87Z"/><path class="cls-1" d="M10.58,36.37a5.25,5.25,0,0,1-.12,10.49,5.25,5.25,0,0,1,.12-10.49Zm-.09,2.74a2.51,2.51,0,0,0,0,5,2.51,2.51,0,1,0,0-5Z"/></svg>